{"title":"In.Tranzit.2008.DVDRiP.XViD.OPTIONAL.NORDIC-Zen_Bud","uid":5861788,"size":750481152,"categoryP":"video","categoryS":"movies","magnet":"?xt=urn:btih:63a9b864ea73d9ce99545bf2b1ae9020314a451d&amp;dn=In.Tranzit.2008.DVDRiP.XViD.OPTIONAL.NORDIC-Zen_Bud&amp;tr=udp%3A%2F%2Ftracker.openbittorrent.com%3A80&amp;tr=udp%3A%2F%2Fopen.demonii.com%3A1337&amp;tr=udp%3A%2F%2Ftracker.coppersurfer.tk%3A6969&amp;tr=udp%3A%2F%2Fexodus.desync.com%3A6969","seeders":1,"leechers":0,"uploader":"Zen_Bud","files":-1,"time":1286003383,"description":"\n********* In.Tranzit.2008.DVDRiP.XViD.OPTIONAL.NORDIC-Zen_Bud **********\n\nFormat                           : AVI\nFile size                        : 707 MiB\nDuration                         : 1h 48mn\nOverall bit rate                 : 915 Kbps\n\nVideo\n\nFormat                           : MPEG-4 Visual\nCodec ID/Hint                    : XviD\nDuration                         : 1h 48mn\nBit rate                         : 774 Kbps\nWidth                            : 720 pixels\nHeight                           : 576 pixels\nDisplay aspect ratio             : 16:9\nStream size                      : 598 MiB (85%)\nWriting library                  : XviD 1.1.2 (UTC 2006-11-01)\n\nAudio\n\nFormat                           : MPEG Audio\nCodec ID/Hint                    : MP3\nDuration                         : 1h 48mn\nBit rate                         : 128 Kbps\nChannel(s)                       : 2 channels\nSampling rate                    : 48.0 KHz\nStream size                      : 99.0 MiB (14%)\nLanguage                         : English\n\nText #1\nLanguage                         : Danish\n\nText #2\nLanguage                         : Finnish\n\nText #3\nLanguage                         : Norwegian\n\nText #4\nLanguage                         : Swedish\n\n","torrent":{"xt":"urn:btih:63a9b864ea73d9ce99545bf2b1ae9020314a451d","amp;dn":"In.Tranzit.2008.DVDRiP.XViD.OPTIONAL.NORDIC-Zen_Bud","amp;tr":["udp%3A%2F%2Ftracker.openbittorrent.com%3A80","udp%3A%2F%2Fopen.demonii.com%3A1337","udp%3A%2F%2Ftracker.coppersurfer.tk%3A6969","udp%3A%2F%2Fexodus.desync.com%3A6969"],"infoHash":"63a9b864ea73d9ce99545bf2b1ae9020314a451d","infoHashBuffer":{"type":"Buffer","data":[99,169,184,100,234,115,217,206,153,84,91,242,177,174,144,32,49,74,69,29]},"announce":[],"urlList":[]}}